<svg id="svg" version="1.1" xmlns="http://www.w3.org/2000/svg" xmlns:xlink="http://www.w3.org/1999/xlink" width="400" height="139.14067098293114" viewBox="0, 0, 400,139.14067098293114"><g id="svgg"><path id="path0" d="M211.597 46.311 C 211.548 46.391,210.981 46.508,210.337 46.572 C 209.693 46.635,209.167 46.749,209.167 46.825 C 209.167 46.901,208.902 47.013,208.579 47.073 C 208.030 47.176,207.008 47.683,206.552 48.078 C 206.443 48.173,206.086 48.438,205.760 48.667 C 205.433 48.896,205.122 49.247,205.068 49.446 C 205.014 49.646,204.871 49.847,204.751 49.893 C 204.630 49.940,204.477 50.226,204.411 50.530 C 204.345 50.835,204.224 51.126,204.141 51.179 C 204.059 51.232,203.945 51.663,203.889 52.138 C 203.833 52.612,203.722 53.000,203.643 53.000 C 203.565 53.000,203.500 54.425,203.500 56.167 C 203.500 57.908,203.565 59.333,203.645 59.333 C 203.725 59.333,203.840 59.708,203.901 60.167 C 203.962 60.625,204.076 61.000,204.154 61.000 C 204.232 61.000,204.343 61.248,204.400 61.551 C 204.457 61.855,204.613 62.248,204.747 62.426 C 204.882 62.604,205.237 63.080,205.537 63.484 C 205.838 63.888,206.228 64.301,206.406 64.401 C 206.583 64.501,206.892 64.752,207.092 64.958 C 207.291 65.165,207.521 65.333,207.602 65.334 C 207.684 65.334,207.975 65.520,208.250 65.747 C 209.000 66.367,209.044 66.397,209.583 66.666 C 209.858 66.804,210.143 67.010,210.217 67.125 C 210.290 67.239,210.417 67.333,210.500 67.333 C 210.582 67.333,210.834 67.505,211.060 67.714 C 211.286 67.924,211.684 68.205,211.944 68.339 C 212.204 68.473,212.477 68.677,212.550 68.791 C 212.623 68.906,212.754 69.000,212.840 69.000 C 212.985 69.000,213.128 69.104,214.040 69.875 C 214.229 70.035,214.429 70.167,214.484 70.167 C 215.401 70.167,215.850 75.594,215.012 76.542 C 214.490 77.132,213.690 77.160,213.096 76.609 C 212.676 76.220,212.674 76.204,212.629 72.984 L 212.583 69.750 208.190 69.706 L 203.796 69.661 203.858 73.223 C 203.896 75.415,203.989 76.875,204.099 77.018 C 204.198 77.146,204.371 77.681,204.484 78.208 C 204.598 78.735,204.760 79.167,204.845 79.167 C 204.930 79.167,205.000 79.275,205.000 79.408 C 205.000 79.541,205.094 79.710,205.208 79.783 C 205.323 79.857,205.499 80.067,205.599 80.250 C 205.699 80.433,206.112 80.829,206.516 81.129 C 206.920 81.430,207.397 81.786,207.576 81.921 C 207.755 82.056,208.030 82.167,208.187 82.167 C 208.344 82.167,208.497 82.237,208.528 82.324 C 208.558 82.410,208.958 82.578,209.417 82.696 C 209.875 82.814,210.293 82.971,210.346 83.044 C 210.399 83.117,211.224 83.222,212.180 83.278 C 213.135 83.333,214.013 83.455,214.131 83.548 C 214.276 83.663,214.463 83.659,214.714 83.538 C 214.917 83.439,215.789 83.320,216.651 83.272 C 217.514 83.224,218.266 83.109,218.323 83.017 C 218.380 82.925,218.748 82.798,219.141 82.735 C 219.534 82.672,219.954 82.522,220.074 82.402 C 220.195 82.282,220.490 82.134,220.730 82.073 C 220.970 82.013,221.167 81.897,221.167 81.815 C 221.167 81.734,221.246 81.667,221.342 81.667 C 222.108 81.667,223.906 79.558,224.090 78.445 C 224.153 78.063,224.290 77.645,224.394 77.516 C 224.523 77.356,224.583 76.034,224.583 73.333 C 224.583 70.632,224.523 69.311,224.394 69.151 C 224.290 69.022,224.151 68.579,224.086 68.167 C 223.959 67.362,223.363 66.000,223.137 66.000 C 223.062 66.000,223.000 65.900,223.000 65.777 C 223.000 65.510,221.486 63.927,220.757 63.432 C 220.472 63.239,220.129 62.986,219.994 62.870 C 219.236 62.219,218.929 62.000,218.647 61.910 C 218.474 61.856,218.333 61.750,218.333 61.675 C 218.333 61.600,218.202 61.495,218.042 61.441 C 217.800 61.360,217.162 60.941,215.909 60.042 C 215.674 59.873,214.846 59.393,214.337 59.130 C 213.844 58.875,213.012 57.996,213.005 57.722 C 213.002 57.615,212.906 57.497,212.792 57.458 C 212.641 57.408,212.583 56.859,212.583 55.482 C 212.583 53.238,212.826 52.753,213.935 52.784 C 214.857 52.810,214.909 52.948,215.000 55.633 L 215.083 58.083 219.568 58.128 L 224.053 58.172 223.944 55.304 C 223.885 53.727,223.760 52.360,223.668 52.268 C 223.576 52.176,223.500 51.923,223.500 51.706 C 223.500 50.785,221.961 48.333,221.384 48.333 C 221.292 48.333,221.045 48.183,220.833 48.000 C 220.622 47.817,220.348 47.667,220.224 47.667 C 220.101 47.667,220.000 47.599,220.000 47.517 C 220.000 47.434,219.606 47.274,219.125 47.161 C 218.644 47.049,218.165 46.889,218.061 46.807 C 217.957 46.725,217.373 46.611,216.764 46.554 C 216.154 46.497,215.616 46.387,215.568 46.309 C 215.452 46.122,211.713 46.124,211.597 46.311 M318.099 46.309 C 318.050 46.387,317.507 46.498,316.892 46.555 C 316.277 46.613,315.731 46.723,315.679 46.801 C 315.626 46.878,315.227 47.039,314.792 47.159 C 314.356 47.279,314.000 47.424,314.000 47.481 C 314.000 47.538,313.772 47.686,313.494 47.809 C 312.250 48.360,310.759 50.283,310.550 51.607 C 310.494 51.961,310.366 52.304,310.266 52.369 C 309.989 52.549,310.014 59.699,310.292 59.792 C 310.406 59.830,310.500 60.052,310.500 60.285 C 310.500 60.778,311.311 62.667,311.523 62.667 C 311.602 62.667,311.667 62.768,311.667 62.891 C 311.667 63.163,313.466 65.000,313.732 65.000 C 313.788 65.000,313.974 65.131,314.147 65.292 C 314.637 65.748,315.221 66.167,315.367 66.167 C 315.440 66.167,315.641 66.298,315.814 66.458 C 316.368 66.974,316.896 67.333,317.099 67.333 C 317.208 67.333,317.341 67.446,317.394 67.583 C 317.446 67.721,317.598 67.833,317.731 67.833 C 317.864 67.833,317.997 67.890,318.028 67.958 C 318.058 68.027,318.421 68.308,318.833 68.583 C 319.246 68.858,319.643 69.176,319.717 69.291 C 319.790 69.406,319.930 69.500,320.028 69.500 C 320.240 69.500,321.500 70.731,321.501 70.939 C 321.502 71.018,321.623 71.308,321.770 71.583 C 322.118 72.231,322.205 76.015,321.875 76.125 C 321.760 76.163,321.667 76.303,321.667 76.435 C 321.667 77.019,320.052 77.185,319.567 76.650 C 319.282 76.334,319.245 75.965,319.196 72.983 L 319.142 69.667 314.654 69.667 L 310.167 69.667 310.167 72.083 C 310.167 73.583,310.230 74.500,310.333 74.500 C 310.425 74.500,310.500 74.856,310.501 75.292 C 310.503 76.925,311.065 79.094,311.542 79.306 C 311.610 79.336,311.667 79.459,311.667 79.579 C 311.667 79.818,313.274 81.500,313.502 81.500 C 313.579 81.500,313.742 81.594,313.863 81.708 C 314.206 82.032,315.555 82.653,316.183 82.775 C 316.495 82.836,316.793 82.951,316.846 83.031 C 316.899 83.112,317.724 83.222,318.680 83.278 C 319.635 83.333,320.513 83.455,320.631 83.548 C 320.776 83.663,320.963 83.659,321.214 83.538 C 321.417 83.439,322.283 83.320,323.138 83.273 C 323.992 83.225,324.780 83.117,324.888 83.032 C 324.995 82.947,325.477 82.785,325.958 82.672 C 326.440 82.559,326.833 82.405,326.833 82.330 C 326.833 82.255,327.052 82.145,327.319 82.086 C 327.587 82.028,327.847 81.872,327.898 81.740 C 327.948 81.608,328.093 81.500,328.219 81.500 C 328.981 81.500,330.571 79.186,330.766 77.792 C 330.826 77.356,330.942 77.000,331.021 77.000 C 331.101 77.000,331.167 75.387,331.167 73.417 C 331.167 71.446,331.101 69.833,331.022 69.833 C 330.942 69.833,330.824 69.367,330.759 68.797 C 330.654 67.867,330.138 66.384,329.845 66.167 C 329.783 66.121,329.566 65.810,329.364 65.476 C 329.161 65.142,328.677 64.599,328.289 64.269 C 327.901 63.939,327.474 63.576,327.340 63.462 C 326.685 62.904,325.146 61.833,325.000 61.833 C 324.908 61.833,324.833 61.760,324.833 61.670 C 324.833 61.580,324.651 61.461,324.429 61.405 C 324.206 61.349,323.984 61.198,323.934 61.068 C 323.884 60.939,323.737 60.833,323.606 60.833 C 323.476 60.833,323.326 60.721,323.273 60.583 C 323.220 60.446,323.074 60.333,322.947 60.333 C 322.821 60.333,322.545 60.183,322.333 60.000 C 322.122 59.817,321.848 59.667,321.724 59.667 C 321.601 59.667,321.500 59.597,321.500 59.511 C 321.500 59.426,321.355 59.310,321.177 59.253 C 320.441 59.020,319.289 57.637,319.204 56.885 C 319.160 56.490,319.058 56.167,318.978 56.167 C 318.343 56.167,319.169 53.220,319.889 52.917 C 321.216 52.359,321.485 52.847,321.543 55.917 L 321.583 58.083 326.054 58.128 L 330.524 58.172 330.447 55.711 C 330.358 52.887,330.137 51.387,329.660 50.368 C 329.312 49.624,327.926 48.167,327.567 48.167 C 327.454 48.167,327.336 48.106,327.306 48.032 C 327.226 47.839,325.487 47.000,325.167 47.000 C 325.020 47.000,324.822 46.922,324.726 46.826 C 324.630 46.730,324.015 46.607,323.359 46.552 C 322.703 46.497,322.167 46.388,322.167 46.309 C 322.167 46.123,318.213 46.123,318.099 46.309 M225.667 50.750 L 225.667 54.500 228.333 54.500 L 231.000 54.500 231.000 68.583 L 231.000 82.667 235.750 82.667 L 240.500 82.667 240.500 68.583 L 240.500 54.500 243.167 54.500 L 245.833 54.500 245.833 50.750 L 245.833 47.000 235.750 47.000 L 225.667 47.000 225.667 50.750 M248.438 47.375 C 248.383 47.581,248.337 48.027,248.336 48.365 C 248.334 48.704,248.267 49.022,248.185 49.072 C 248.103 49.122,247.983 49.989,247.917 50.999 C 247.851 52.008,247.741 52.833,247.674 52.833 C 247.606 52.833,247.455 53.977,247.338 55.375 C 247.222 56.773,247.079 57.992,247.021 58.083 C 246.913 58.256,246.694 59.925,246.204 64.333 C 246.046 65.754,245.868 66.992,245.809 67.083 C 245.750 67.175,245.647 67.982,245.581 68.878 C 245.514 69.773,245.402 70.541,245.331 70.585 C 245.261 70.628,245.149 71.433,245.083 72.374 C 245.017 73.314,244.908 74.158,244.840 74.250 C 244.772 74.342,244.620 75.542,244.504 76.917 C 244.387 78.292,244.235 79.492,244.165 79.583 C 244.096 79.675,243.986 80.406,243.922 81.208 L 243.803 82.667 248.710 82.667 L 253.617 82.667 253.725 81.141 C 253.785 80.302,253.833 79.177,253.833 78.641 C 253.833 78.103,253.908 77.667,254.000 77.667 C 254.092 77.667,254.167 77.367,254.167 77.000 L 254.167 76.333 255.560 76.333 L 256.953 76.333 257.060 77.358 C 257.118 77.921,257.167 78.859,257.167 79.441 C 257.167 80.036,257.240 80.500,257.333 80.500 C 257.427 80.500,257.500 80.972,257.500 81.583 L 257.500 82.667 262.405 82.667 L 267.309 82.667 267.213 81.708 C 267.160 81.181,267.062 80.712,266.995 80.667 C 266.928 80.621,266.819 79.890,266.752 79.042 C 266.686 78.194,266.578 77.500,266.512 77.500 C 266.447 77.500,266.298 76.469,266.182 75.208 C 266.065 73.948,265.909 72.842,265.835 72.750 C 265.761 72.658,265.646 71.908,265.580 71.083 C 265.514 70.258,265.402 69.508,265.330 69.417 C 265.259 69.325,265.146 68.594,265.080 67.792 C 265.015 66.990,264.907 66.333,264.841 66.333 C 264.775 66.333,264.622 65.246,264.500 63.917 C 264.378 62.587,264.226 61.500,264.161 61.500 C 264.096 61.500,263.989 60.806,263.923 59.958 C 263.857 59.110,263.745 58.342,263.674 58.250 C 263.603 58.158,263.450 57.108,263.333 55.917 C 263.217 54.725,263.065 53.675,262.996 53.583 C 262.927 53.492,262.816 52.723,262.751 51.875 C 262.685 51.027,262.574 50.333,262.504 50.333 C 262.434 50.333,262.322 49.640,262.256 48.792 C 262.189 47.937,262.049 47.196,261.943 47.128 C 261.837 47.060,258.777 47.004,255.144 47.003 L 248.539 47.000 248.438 47.375 M268.500 64.833 L 268.500 82.667 273.250 82.667 L 278.000 82.667 278.019 76.125 C 278.031 71.736,278.086 69.858,278.186 70.417 C 278.267 70.875,278.405 71.375,278.493 71.527 C 278.580 71.680,278.702 72.186,278.764 72.652 C 278.826 73.118,278.933 73.500,279.002 73.500 C 279.072 73.500,279.180 73.912,279.243 74.417 C 279.306 74.921,279.413 75.333,279.480 75.333 C 279.548 75.333,279.698 76.008,279.815 76.832 C 279.932 77.656,280.091 78.370,280.169 78.418 C 280.246 78.466,280.361 78.917,280.424 79.419 C 280.487 79.922,280.605 80.333,280.686 80.333 C 280.767 80.333,280.833 80.480,280.833 80.658 C 280.833 80.837,280.915 81.362,281.014 81.825 L 281.194 82.667 286.180 82.667 C 290.502 82.667,291.167 82.633,291.167 82.417 C 291.167 82.279,291.100 82.167,291.019 82.167 C 290.938 82.167,290.821 81.829,290.759 81.417 C 290.697 81.004,290.591 80.667,290.523 80.667 C 290.455 80.667,290.300 80.104,290.178 79.417 C 290.055 78.729,289.900 78.167,289.832 78.167 C 289.765 78.167,289.659 77.852,289.597 77.467 C 289.536 77.082,289.426 76.688,289.354 76.592 C 289.281 76.495,289.126 75.967,289.009 75.417 C 288.892 74.867,288.738 74.342,288.667 74.250 C 288.596 74.158,288.485 73.765,288.421 73.376 C 288.357 72.987,288.245 72.631,288.171 72.586 C 288.098 72.541,287.988 72.166,287.926 71.752 C 287.864 71.338,287.755 71.000,287.683 71.000 C 287.612 71.000,287.460 70.475,287.345 69.833 C 287.230 69.192,287.078 68.667,287.006 68.667 C 286.935 68.667,286.827 68.292,286.766 67.833 C 286.705 67.375,286.596 67.000,286.523 67.000 C 286.450 67.000,286.298 66.495,286.184 65.879 C 286.071 65.262,285.897 64.660,285.799 64.542 C 285.513 64.197,285.550 62.487,285.858 61.833 C 286.009 61.512,286.184 60.931,286.247 60.542 C 286.311 60.152,286.423 59.833,286.496 59.833 C 286.570 59.833,286.682 59.552,286.746 59.208 C 286.811 58.865,286.922 58.508,286.993 58.417 C 287.065 58.325,287.218 57.837,287.333 57.333 C 287.449 56.829,287.606 56.338,287.681 56.242 C 287.757 56.146,287.869 55.752,287.931 55.367 C 287.992 54.982,288.100 54.667,288.169 54.667 C 288.239 54.667,288.349 54.385,288.413 54.042 C 288.477 53.698,288.590 53.342,288.663 53.250 C 288.736 53.158,288.892 52.652,289.008 52.125 C 289.124 51.598,289.278 51.167,289.350 51.167 C 289.421 51.167,289.530 50.829,289.592 50.417 C 289.654 50.004,289.761 49.667,289.831 49.667 C 289.900 49.667,290.045 49.219,290.152 48.672 C 290.260 48.125,290.420 47.633,290.507 47.579 C 290.595 47.525,290.667 47.372,290.667 47.240 C 290.667 46.836,281.691 46.887,281.566 47.292 C 281.516 47.452,281.414 47.700,281.340 47.843 C 281.265 47.986,281.112 48.549,281.000 49.093 C 280.889 49.638,280.737 50.158,280.664 50.250 C 280.590 50.342,280.476 50.717,280.410 51.083 C 280.344 51.450,280.233 51.825,280.163 51.917 C 280.093 52.008,279.945 52.533,279.833 53.083 C 279.722 53.633,279.567 54.162,279.489 54.258 C 279.412 54.354,279.298 54.748,279.236 55.133 C 279.174 55.518,279.067 55.833,278.998 55.833 C 278.928 55.833,278.818 56.190,278.753 56.625 C 278.689 57.060,278.575 57.492,278.501 57.583 C 278.427 57.675,278.292 58.087,278.201 58.500 C 278.080 59.049,278.031 57.606,278.018 53.125 L 278.000 47.000 273.250 47.000 L 268.500 47.000 268.500 64.833 M292.333 64.833 L 292.333 82.667 300.417 82.667 L 308.500 82.667 308.500 78.917 L 308.500 75.167 305.250 75.167 L 302.000 75.167 302.000 71.500 L 302.000 67.833 304.824 67.833 L 307.649 67.833 307.616 64.375 L 307.583 60.917 304.792 60.871 L 302.000 60.825 302.000 57.663 L 302.000 54.500 304.917 54.500 L 307.833 54.500 307.833 50.750 L 307.833 47.000 300.083 47.000 L 292.333 47.000 292.333 64.833 M255.893 61.583 C 255.998 62.958,256.132 64.158,256.192 64.250 C 256.251 64.342,256.355 65.412,256.421 66.629 C 256.488 67.845,256.608 68.881,256.688 68.930 C 257.338 69.332,256.792 69.667,255.488 69.667 L 254.143 69.667 254.261 67.708 C 254.326 66.631,254.435 65.712,254.502 65.667 C 254.569 65.621,254.679 64.702,254.745 63.625 C 254.812 62.547,254.925 61.630,254.996 61.586 C 255.068 61.541,255.185 60.698,255.257 59.711 C 255.424 57.407,255.618 57.979,255.893 61.583 M255.708 87.275 C 255.502 87.320,255.333 87.418,255.333 87.494 C 255.333 87.569,255.144 87.678,254.913 87.736 C 254.115 87.936,252.833 89.420,252.833 90.142 C 252.833 90.324,252.740 90.503,252.625 90.542 C 252.353 90.632,252.328 94.454,252.598 94.631 C 252.697 94.696,252.862 94.993,252.964 95.291 C 253.792 97.712,258.091 98.568,259.949 96.681 C 260.777 95.840,260.936 95.631,261.074 95.196 C 261.137 94.996,261.285 94.833,261.402 94.833 C 261.755 94.833,262.175 94.245,262.279 93.604 C 262.333 93.272,262.438 93.000,262.512 93.000 C 262.586 93.000,262.676 92.719,262.712 92.375 C 262.748 92.031,262.790 92.781,262.805 94.042 C 262.822 95.440,262.898 96.333,263.000 96.333 C 263.092 96.333,263.167 96.440,263.167 96.571 C 263.167 97.390,265.869 97.889,266.348 97.158 C 266.483 96.953,266.532 96.960,266.678 97.208 C 266.818 97.445,267.087 97.500,268.115 97.500 C 269.126 97.500,269.423 97.441,269.596 97.208 C 269.802 96.931,269.824 96.931,270.035 97.216 C 270.341 97.629,271.872 97.772,272.750 97.470 C 273.282 97.286,273.501 97.281,273.833 97.442 C 274.136 97.589,275.035 97.618,277.125 97.547 L 280.000 97.449 280.000 96.891 C 280.000 96.506,279.922 96.333,279.750 96.333 C 279.544 96.333,279.500 96.028,279.500 94.583 C 279.500 92.684,279.524 92.631,280.098 93.250 C 280.496 93.680,281.493 93.825,281.969 93.523 C 282.454 93.215,282.931 91.667,282.541 91.667 C 282.471 91.667,282.315 91.442,282.193 91.167 C 281.925 90.561,280.394 90.416,279.863 90.946 C 279.601 91.208,279.580 91.208,279.529 90.946 C 279.484 90.709,279.248 90.667,277.988 90.667 L 276.500 90.667 276.500 91.250 C 276.500 91.657,276.575 91.833,276.750 91.833 C 276.960 91.833,277.000 92.196,277.000 94.097 L 277.000 96.360 276.468 96.243 C 275.650 96.063,274.924 94.333,275.667 94.333 C 275.876 94.333,275.886 92.929,275.681 92.539 C 275.597 92.380,275.439 92.011,275.331 91.718 C 275.191 91.338,274.996 91.156,274.650 91.080 C 274.384 91.021,274.167 90.904,274.167 90.820 C 274.167 90.624,271.757 90.619,271.373 90.814 C 271.214 90.895,270.875 91.059,270.621 91.178 C 270.366 91.297,270.114 91.568,270.061 91.781 C 270.007 91.993,269.897 92.167,269.815 92.167 C 269.480 92.167,269.700 92.913,270.167 93.358 C 270.733 93.899,270.772 94.000,270.417 94.000 C 270.279 94.000,270.167 94.070,270.167 94.155 C 270.167 94.240,270.044 94.432,269.895 94.581 C 269.746 94.730,269.586 95.186,269.540 95.593 C 269.483 96.100,269.379 96.333,269.208 96.333 C 268.996 96.333,268.970 95.948,269.028 93.671 C 269.104 90.688,269.165 90.833,267.841 90.833 C 266.245 90.833,265.595 91.190,266.156 91.758 C 266.477 92.083,266.451 95.661,266.126 95.763 C 265.568 95.940,265.500 95.675,265.500 93.344 L 265.500 91.042 264.979 90.938 C 263.642 90.670,262.333 90.875,262.333 91.353 C 262.333 91.568,262.214 91.667,261.954 91.667 C 261.745 91.667,261.449 91.812,261.297 91.991 C 260.781 92.593,258.517 92.567,258.139 91.955 C 258.075 91.852,257.527 91.736,256.921 91.697 L 255.819 91.627 255.932 90.855 C 255.995 90.431,256.110 90.058,256.190 90.028 C 256.269 89.997,256.333 89.875,256.333 89.755 C 256.333 89.503,257.043 89.000,257.399 89.000 C 257.733 89.000,258.630 90.121,258.757 90.697 C 258.813 90.955,258.929 91.167,259.013 91.167 C 259.098 91.167,259.167 91.317,259.167 91.500 C 259.167 91.784,259.278 91.833,259.917 91.833 L 260.667 91.833 260.667 89.770 C 260.667 87.448,260.605 87.312,259.557 87.327 C 259.205 87.332,258.279 87.304,257.500 87.265 C 256.721 87.225,255.915 87.230,255.708 87.275 M200.500 87.880 C 200.500 88.180,200.603 88.574,200.729 88.755 C 200.855 88.935,201.012 89.477,201.078 89.958 C 201.144 90.440,201.252 90.833,201.319 90.833 C 201.385 90.833,201.538 91.435,201.657 92.169 C 201.776 92.904,201.931 93.541,202.001 93.584 C 202.071 93.627,202.179 94.076,202.243 94.581 C 202.306 95.087,202.427 95.500,202.512 95.500 C 202.597 95.500,202.667 95.950,202.667 96.500 L 202.667 97.500 204.000 97.500 L 205.333 97.500 205.333 96.750 C 205.333 96.337,205.400 96.000,205.481 96.000 C 205.562 96.000,205.680 95.589,205.742 95.086 C 205.805 94.583,205.926 94.129,206.012 94.076 C 206.097 94.023,206.167 93.791,206.167 93.560 C 206.167 92.707,206.587 93.297,206.786 94.430 C 206.898 95.065,207.067 95.714,207.161 95.873 C 207.256 96.032,207.333 96.463,207.333 96.831 L 207.333 97.500 208.583 97.500 L 209.833 97.500 209.833 96.927 C 209.833 96.611,209.898 96.313,209.978 96.264 C 210.058 96.214,210.175 95.781,210.239 95.300 C 210.303 94.819,210.419 94.347,210.498 94.252 C 210.577 94.157,210.739 93.462,210.858 92.706 C 210.976 91.951,211.127 91.333,211.191 91.333 C 211.256 91.333,211.361 90.921,211.424 90.417 C 211.487 89.912,211.605 89.500,211.686 89.500 C 211.767 89.500,211.833 89.290,211.833 89.033 C 211.833 88.777,211.918 88.482,212.021 88.379 C 212.604 87.796,212.041 87.333,210.747 87.333 L 209.500 87.333 209.500 88.333 C 209.500 88.883,209.432 89.333,209.349 89.333 C 209.266 89.333,209.145 89.715,209.081 90.182 C 209.017 90.648,208.861 91.230,208.733 91.473 L 208.502 91.917 208.501 91.458 C 208.500 91.206,208.438 91.000,208.363 91.000 C 208.192 91.000,207.797 88.528,207.932 88.308 C 208.433 87.498,205.614 86.786,204.867 87.533 C 204.624 87.776,204.601 88.333,204.833 88.333 C 204.925 88.333,205.000 88.446,205.000 88.583 C 205.000 88.721,204.937 88.833,204.860 88.833 C 204.783 88.833,204.621 89.474,204.499 90.257 C 204.248 91.868,204.056 92.161,203.899 91.175 C 203.839 90.804,203.734 90.500,203.665 90.500 C 203.595 90.500,203.485 90.069,203.419 89.542 C 203.353 89.015,203.213 88.528,203.108 88.461 C 202.969 88.372,202.974 88.338,203.125 88.336 C 203.407 88.332,203.389 87.865,203.095 87.571 C 202.934 87.410,202.478 87.333,201.679 87.333 L 200.500 87.333 200.500 87.880 M318.611 87.444 C 318.436 87.620,318.482 88.500,318.667 88.500 C 318.764 88.500,318.833 89.048,318.833 89.810 C 318.833 91.093,318.380 91.583,317.904 90.813 C 317.779 90.611,317.000 90.628,317.000 90.833 C 317.000 90.925,316.772 91.000,316.492 91.000 C 315.994 91.000,315.624 91.284,314.958 92.177 C 314.731 92.482,314.667 92.900,314.667 94.079 L 314.667 95.591 315.458 96.471 C 316.490 97.616,318.620 98.000,319.823 97.256 C 319.908 97.204,320.024 97.237,320.082 97.331 C 320.139 97.424,320.482 97.500,320.843 97.500 L 321.500 97.500 321.500 92.655 C 321.500 88.678,321.457 87.767,321.262 87.571 C 321.016 87.326,318.835 87.221,318.611 87.444 M213.167 87.981 C 213.167 88.062,213.011 88.168,212.821 88.218 C 212.631 88.268,212.435 88.464,212.385 88.654 C 212.335 88.844,212.228 89.000,212.147 89.000 C 212.066 89.000,212.000 89.150,212.000 89.333 C 212.000 89.517,212.059 89.667,212.130 89.667 C 212.202 89.667,212.345 89.892,212.449 90.167 C 212.615 90.607,212.602 90.667,212.338 90.667 C 212.169 90.667,211.995 90.829,211.938 91.042 C 211.776 91.648,211.814 91.789,212.167 91.882 C 212.684 92.017,212.675 95.992,212.156 96.510 C 211.444 97.222,211.751 97.412,213.697 97.464 C 215.670 97.516,216.225 97.188,215.355 96.484 C 215.019 96.212,215.000 96.049,215.000 93.510 C 215.000 91.296,214.957 90.806,214.754 90.729 C 214.539 90.646,214.540 90.603,214.762 90.381 C 215.234 89.909,215.015 88.500,214.417 88.150 C 213.880 87.836,213.167 87.740,213.167 87.981 M231.208 88.196 C 230.579 88.585,230.414 89.890,230.929 90.405 C 231.167 90.643,231.160 90.667,230.851 90.667 C 230.216 90.667,230.007 91.673,230.596 91.899 C 230.839 91.992,230.966 96.145,230.734 96.377 C 230.310 96.801,230.167 96.219,230.167 94.066 C 230.167 92.796,230.100 91.833,230.011 91.833 C 229.926 91.833,229.810 91.689,229.754 91.512 C 229.696 91.331,229.435 91.142,229.159 91.082 C 228.888 91.022,228.667 90.904,228.667 90.820 C 228.667 90.628,227.381 90.616,227.306 90.808 C 227.193 91.092,226.333 91.191,226.333 90.920 C 226.333 90.390,223.531 90.570,223.395 91.109 C 223.316 91.424,223.364 91.610,223.559 91.753 C 223.949 92.038,223.971 96.245,223.583 96.394 C 222.920 96.648,222.833 96.387,222.833 94.138 C 222.833 92.950,222.756 91.834,222.662 91.657 C 222.317 91.014,220.160 90.332,219.972 90.808 C 219.860 91.092,219.000 91.191,219.000 90.920 C 219.000 90.567,216.589 90.554,216.238 90.905 C 215.928 91.214,215.934 91.606,216.250 91.727 C 216.455 91.806,216.500 92.228,216.500 94.083 C 216.500 95.939,216.455 96.361,216.250 96.440 C 216.107 96.494,216.000 96.743,216.000 97.018 L 216.000 97.500 217.750 97.500 L 219.500 97.500 219.500 96.917 C 219.500 96.509,219.425 96.333,219.250 96.333 C 219.044 96.333,219.000 96.036,219.000 94.660 C 219.000 92.796,219.237 92.252,219.965 92.442 C 220.440 92.567,220.549 96.215,220.083 96.394 C 219.937 96.450,219.833 96.699,219.833 96.995 L 219.833 97.500 223.333 97.500 L 226.833 97.500 226.833 96.917 C 226.833 96.509,226.758 96.333,226.583 96.333 C 226.170 96.333,226.223 92.985,226.643 92.605 C 227.319 91.993,227.500 92.380,227.500 94.434 C 227.500 95.589,227.435 96.333,227.333 96.333 C 227.242 96.333,227.167 96.596,227.167 96.917 L 227.167 97.500 230.480 97.500 C 233.085 97.500,233.833 97.451,233.982 97.271 C 234.205 97.003,234.076 96.565,233.737 96.435 C 233.545 96.361,233.500 95.818,233.500 93.597 C 233.500 91.260,233.460 90.828,233.235 90.702 C 233.002 90.571,233.000 90.524,233.215 90.309 C 233.849 89.674,233.514 88.167,232.738 88.167 C 232.607 88.167,232.500 88.092,232.500 88.000 C 232.500 87.728,231.791 87.836,231.208 88.196 M299.105 88.717 C 298.864 88.924,298.667 89.151,298.667 89.220 C 298.667 89.440,297.938 90.387,297.375 90.901 C 296.847 91.383,296.665 91.833,297.000 91.833 C 297.101 91.833,297.167 92.556,297.167 93.669 C 297.167 94.679,297.237 95.635,297.323 95.794 C 297.409 95.953,297.519 96.272,297.566 96.502 C 297.756 97.419,300.069 97.920,300.731 97.187 C 301.157 96.717,301.312 95.575,300.930 95.722 C 300.003 96.078,299.833 95.769,299.833 93.732 L 299.833 91.833 300.500 91.833 L 301.167 91.833 301.167 91.000 L 301.167 90.167 300.500 90.167 L 299.833 90.167 299.833 89.343 C 299.833 88.350,299.683 88.221,299.105 88.717 M243.458 90.603 C 243.298 90.651,243.167 90.761,243.167 90.846 C 243.167 90.930,243.057 91.000,242.922 91.000 C 241.987 91.000,241.196 93.333,241.875 94.089 C 242.546 94.838,242.547 94.839,242.243 95.175 C 242.012 95.430,241.972 95.682,242.048 96.414 C 242.174 97.638,241.761 97.723,241.600 96.507 C 241.540 96.052,241.418 95.635,241.329 95.580 C 241.098 95.438,241.127 93.606,241.363 93.370 C 241.511 93.223,241.513 93.078,241.373 92.795 C 241.270 92.587,241.139 92.176,241.081 91.882 C 241.000 91.465,240.850 91.301,240.405 91.140 C 240.091 91.026,239.833 90.873,239.833 90.800 C 239.833 90.618,238.542 90.630,238.429 90.813 C 238.267 91.076,237.500 91.142,237.500 90.894 C 237.500 90.563,234.903 90.573,234.571 90.905 C 234.267 91.209,234.271 91.407,234.583 91.667 C 234.783 91.832,234.833 92.326,234.833 94.109 C 234.833 95.942,234.788 96.361,234.583 96.440 C 234.441 96.494,234.333 96.743,234.333 97.018 L 234.333 97.500 236.083 97.500 L 237.833 97.500 237.833 96.917 C 237.833 96.596,237.758 96.333,237.667 96.333 C 237.566 96.333,237.500 95.650,237.500 94.615 C 237.500 92.718,237.663 92.271,238.292 92.439 C 238.772 92.567,238.887 96.213,238.417 96.394 C 238.271 96.450,238.167 96.699,238.167 96.995 L 238.167 97.500 239.833 97.500 C 241.606 97.500,241.740 97.574,241.333 98.334 C 241.221 98.543,241.221 98.681,241.333 98.750 C 241.425 98.807,241.500 98.988,241.500 99.152 C 241.500 99.317,241.701 99.669,241.947 99.934 L 242.395 100.417 244.870 100.417 C 246.509 100.417,247.386 100.354,247.464 100.231 C 247.530 100.129,247.743 99.995,247.939 99.934 C 248.835 99.655,249.083 99.217,249.083 97.918 C 249.083 96.474,248.727 96.045,247.274 95.743 C 246.244 95.529,246.143 95.304,246.935 94.993 C 247.764 94.667,248.298 93.923,248.363 92.999 C 248.405 92.411,248.497 92.215,248.792 92.085 C 249.085 91.957,249.167 91.784,249.167 91.294 L 249.167 90.667 248.443 90.667 C 248.045 90.667,246.826 90.633,245.735 90.591 C 244.643 90.549,243.619 90.555,243.458 90.603 M284.428 90.815 C 284.378 90.896,284.130 91.015,283.877 91.078 C 282.745 91.362,282.353 93.093,283.323 93.522 L 283.813 93.739 283.293 94.202 C 281.823 95.515,282.396 97.443,284.312 97.627 C 285.189 97.711,286.333 97.425,286.333 97.122 C 286.333 97.020,286.440 97.082,286.570 97.260 C 286.828 97.612,286.938 97.619,290.958 97.540 L 293.000 97.500 293.000 96.917 C 293.000 96.509,292.925 96.333,292.750 96.333 C 292.337 96.333,292.390 92.985,292.809 92.605 C 292.983 92.448,293.238 92.371,293.393 92.430 C 293.787 92.582,293.801 96.181,293.409 96.507 C 292.663 97.125,293.156 97.414,295.042 97.464 L 296.833 97.511 296.833 97.039 C 296.833 96.779,296.743 96.476,296.632 96.365 C 296.498 96.231,296.423 95.457,296.408 94.066 C 296.396 92.907,296.313 91.920,296.223 91.859 C 296.133 91.799,296.010 91.617,295.950 91.455 C 295.890 91.293,295.614 91.115,295.337 91.059 C 295.060 91.004,294.833 90.893,294.833 90.813 C 294.833 90.623,293.781 90.623,293.575 90.812 C 293.247 91.112,292.500 91.188,292.500 90.920 C 292.500 90.390,289.697 90.570,289.562 91.109 C 289.483 91.424,289.530 91.610,289.725 91.753 C 290.131 92.049,290.142 96.423,289.736 96.268 C 289.591 96.212,289.329 96.167,289.153 96.167 C 288.856 96.167,288.833 96.028,288.833 94.250 C 288.833 93.196,288.768 92.333,288.688 92.333 C 288.607 92.333,288.499 92.118,288.446 91.856 C 288.272 90.987,284.867 90.104,284.428 90.815 M303.333 90.802 C 303.333 90.877,303.069 91.065,302.745 91.219 C 302.421 91.373,302.107 91.631,302.047 91.791 C 301.987 91.952,301.820 92.171,301.677 92.278 C 300.763 92.963,301.501 96.287,302.759 97.149 C 303.512 97.665,306.667 97.665,306.667 97.149 C 306.667 97.067,306.762 97.000,306.880 97.000 C 307.511 97.000,308.091 95.421,307.608 95.020 C 307.249 94.723,306.781 94.847,306.586 95.292 C 306.229 96.103,304.659 95.987,304.319 95.126 C 304.201 94.828,304.073 94.519,304.033 94.441 C 303.993 94.363,304.676 94.325,305.550 94.358 C 306.424 94.390,307.195 94.360,307.264 94.292 C 307.561 93.995,307.812 94.216,307.923 94.871 C 308.092 95.871,308.629 96.661,309.530 97.238 C 310.207 97.671,313.167 97.598,313.167 97.149 C 313.167 97.067,313.276 97.000,313.410 97.000 C 313.778 97.000,314.500 96.138,314.500 95.698 C 314.500 94.841,313.793 94.601,313.223 95.265 C 312.437 96.179,311.048 95.902,310.769 94.775 L 310.652 94.300 312.201 94.335 C 314.261 94.383,314.500 94.296,314.500 93.506 C 314.500 92.519,314.043 91.762,312.882 90.829 C 312.613 90.613,310.000 90.617,310.000 90.833 C 310.000 90.925,309.901 91.000,309.780 91.000 C 309.290 91.000,308.019 92.498,307.983 93.119 C 307.973 93.283,307.891 93.135,307.800 92.792 C 307.708 92.448,307.574 92.167,307.502 92.167 C 307.429 92.167,307.324 91.986,307.268 91.764 C 307.211 91.534,306.954 91.267,306.667 91.140 C 306.392 91.018,306.167 90.862,306.167 90.793 C 306.167 90.723,305.529 90.667,304.750 90.667 C 303.971 90.667,303.333 90.728,303.333 90.802 M245.262 92.071 C 245.531 92.341,245.589 93.500,245.333 93.500 C 245.242 93.500,245.167 93.612,245.167 93.750 C 245.167 94.142,244.717 94.042,244.605 93.625 C 244.260 92.339,244.637 91.447,245.262 92.071 M272.917 92.333 C 273.062 92.791,272.865 93.333,272.554 93.333 C 272.389 93.333,272.334 93.240,272.399 93.070 C 272.454 92.925,272.500 92.625,272.500 92.403 C 272.500 91.916,272.770 91.870,272.917 92.333 M286.000 92.467 C 286.000 92.890,285.747 93.333,285.504 93.333 C 285.451 93.333,285.436 93.033,285.471 92.667 C 285.546 91.884,286.000 91.712,286.000 92.467 M304.899 92.264 C 305.108 92.810,305.006 93.000,304.500 93.000 C 304.167 93.000,304.000 92.917,304.000 92.750 C 304.000 92.612,304.075 92.500,304.167 92.500 C 304.258 92.500,304.333 92.388,304.333 92.250 C 304.333 91.918,304.770 91.929,304.899 92.264 M311.467 92.200 C 311.857 92.591,311.704 93.000,311.167 93.000 C 310.598 93.000,310.598 92.999,310.860 92.425 C 311.077 91.948,311.178 91.911,311.467 92.200 M318.732 92.764 C 318.895 93.188,318.848 95.439,318.667 95.917 C 318.511 96.326,318.037 96.389,317.667 96.049 C 317.391 95.796,317.480 93.129,317.774 92.832 C 318.157 92.445,318.598 92.414,318.732 92.764 M256.782 93.370 C 257.131 93.573,257.442 93.798,257.472 93.870 C 257.503 93.941,257.593 94.000,257.673 94.000 C 257.753 94.000,258.081 94.178,258.402 94.396 L 258.985 94.792 258.494 95.229 C 257.669 95.964,257.185 95.823,256.166 94.553 C 255.918 94.244,255.761 93.000,255.969 93.000 C 256.067 93.000,256.433 93.166,256.782 93.370 M190.900 94.732 C 189.986 95.140,189.822 96.833,190.623 97.577 C 191.797 98.665,193.509 97.586,193.259 95.917 C 193.086 94.765,192.023 94.231,190.900 94.732 M194.667 94.612 C 193.431 95.091,193.230 97.667,194.429 97.667 C 194.560 97.667,194.667 97.742,194.667 97.833 C 194.667 97.925,194.925 98.000,195.241 98.000 C 195.820 98.000,196.667 97.419,196.667 97.023 C 196.667 96.918,196.742 96.833,196.833 96.833 C 196.925 96.833,197.000 96.571,197.000 96.250 C 197.000 95.929,196.925 95.667,196.833 95.667 C 196.742 95.667,196.667 95.566,196.667 95.442 C 196.667 94.905,195.338 94.353,194.667 94.612 M198.083 94.661 C 197.353 94.969,196.685 97.000,197.314 97.000 C 197.395 97.000,197.500 97.150,197.548 97.333 C 197.596 97.517,197.755 97.667,197.901 97.667 C 198.047 97.667,198.167 97.742,198.167 97.833 C 198.167 98.266,199.374 97.992,199.933 97.433 C 200.481 96.886,200.769 95.667,200.351 95.667 C 200.270 95.667,200.158 95.487,200.102 95.267 C 199.951 94.664,198.856 94.336,198.083 94.661 M272.969 95.207 C 272.934 95.563,272.817 95.766,272.625 95.803 C 272.293 95.865,272.238 95.490,272.506 94.989 C 272.773 94.489,273.027 94.608,272.969 95.207 M286.000 95.250 C 286.000 95.850,285.803 95.973,285.333 95.664 C 285.165 95.554,285.142 95.459,285.262 95.375 C 285.361 95.306,285.489 95.119,285.549 94.958 C 285.731 94.463,286.000 94.636,286.000 95.250 M246.396 98.257 C 246.744 99.163,244.887 99.573,244.270 98.726 C 243.860 98.163,244.096 98.006,245.357 98.003 C 246.052 98.001,246.323 98.067,246.396 98.257 " stroke="none" fill="#fcfcfc" fill-rule="evenodd"></path><path id="path1" d="M188.751 46.034 C 188.201 46.122,187.676 46.254,187.584 46.328 C 187.492 46.401,187.173 46.514,186.875 46.577 C 186.577 46.641,186.333 46.762,186.333 46.847 C 186.333 46.931,186.227 47.000,186.096 47.000 C 185.966 47.000,185.636 47.188,185.364 47.417 C 185.091 47.646,184.815 47.833,184.750 47.833 C 184.582 47.833,182.964 49.479,182.718 49.900 C 182.605 50.093,182.427 50.438,182.322 50.667 C 182.217 50.896,182.065 51.212,181.984 51.369 C 181.904 51.527,181.793 52.089,181.739 52.619 C 181.685 53.150,181.570 53.733,181.483 53.917 C 181.387 54.119,181.348 58.306,181.382 64.583 C 181.440 75.031,181.502 76.160,182.081 77.271 C 182.219 77.534,182.332 77.844,182.332 77.958 C 182.333 78.073,182.390 78.167,182.459 78.167 C 182.529 78.167,182.693 78.410,182.824 78.708 C 183.090 79.311,184.675 81.000,184.975 81.000 C 185.080 81.000,185.167 81.070,185.167 81.156 C 185.167 81.242,185.429 81.407,185.750 81.523 C 186.071 81.639,186.333 81.794,186.333 81.867 C 186.333 81.940,186.427 82.000,186.542 82.001 C 186.656 82.002,186.969 82.116,187.238 82.256 C 188.270 82.795,192.964 82.859,193.138 82.337 C 193.169 82.243,193.323 82.167,193.480 82.167 C 193.811 82.167,194.235 81.865,195.309 80.865 L 196.081 80.146 196.415 81.073 L 196.748 82.000 199.791 82.000 L 202.833 82.000 202.833 72.333 L 202.833 62.667 197.333 62.667 L 191.833 62.667 191.833 65.583 L 191.833 68.500 192.750 68.500 L 193.667 68.500 193.657 71.375 C 193.646 74.679,193.560 75.314,193.043 75.905 C 192.585 76.429,191.556 76.514,191.382 76.042 C 191.323 75.881,191.194 75.696,191.095 75.631 C 190.971 75.548,190.917 72.090,190.917 64.272 L 190.917 53.032 191.384 52.599 C 192.245 51.801,193.167 52.266,193.167 53.500 C 193.167 53.867,193.242 54.167,193.333 54.167 C 193.438 54.167,193.500 55.222,193.500 57.000 L 193.500 59.833 198.186 59.833 L 202.872 59.833 202.808 56.438 C 202.767 54.305,202.675 52.958,202.560 52.813 C 202.458 52.687,202.324 52.227,202.261 51.792 C 202.198 51.356,202.076 51.000,201.990 51.000 C 201.904 51.000,201.833 50.903,201.833 50.784 C 201.833 50.349,199.847 48.169,198.917 47.582 C 197.967 46.983,196.916 46.501,196.556 46.501 C 196.357 46.500,196.169 46.431,196.139 46.347 C 195.980 45.907,190.887 45.692,188.751 46.034 M51.500 47.240 C 51.500 47.647,51.436 48.020,51.358 48.068 C 51.279 48.117,51.118 49.321,51.000 50.745 C 50.882 52.169,50.731 53.333,50.664 53.333 C 50.598 53.333,50.489 54.102,50.422 55.042 C 50.355 55.981,50.252 56.825,50.192 56.917 C 50.072 57.101,49.820 59.033,49.389 63.083 C 49.233 64.550,49.054 65.787,48.991 65.833 C 48.928 65.879,48.821 66.667,48.754 67.583 C 48.687 68.500,48.574 69.325,48.503 69.417 C 48.431 69.508,48.275 70.727,48.156 72.125 C 48.037 73.523,47.886 74.667,47.821 74.667 C 47.756 74.667,47.649 75.435,47.583 76.375 C 47.517 77.315,47.403 78.158,47.329 78.250 C 47.255 78.342,47.141 79.223,47.075 80.209 L 46.955 82.000 51.894 82.000 L 56.833 82.000 56.833 80.533 C 56.833 79.727,56.905 78.995,56.993 78.907 C 57.080 78.820,57.174 78.111,57.201 77.332 L 57.250 75.917 58.708 75.869 L 60.167 75.820 60.184 76.619 C 60.209 77.717,60.457 80.616,60.592 81.375 L 60.703 82.000 65.518 82.000 L 70.333 82.000 70.333 81.260 C 70.333 80.853,70.266 80.478,70.184 80.428 C 70.103 80.377,69.982 79.660,69.917 78.834 C 69.851 78.009,69.744 77.333,69.679 77.333 C 69.613 77.333,69.464 76.303,69.348 75.044 C 69.231 73.785,69.073 72.636,68.996 72.493 C 68.919 72.349,68.803 71.579,68.738 70.782 C 68.674 69.985,68.570 69.333,68.508 69.333 C 68.446 69.333,68.297 68.302,68.178 67.042 C 68.059 65.781,67.903 64.675,67.832 64.583 C 67.762 64.492,67.649 63.779,67.583 63.000 C 67.517 62.221,67.405 61.508,67.333 61.417 C 67.262 61.325,67.149 60.612,67.083 59.833 C 67.017 59.054,66.905 58.342,66.834 58.250 C 66.764 58.158,66.611 57.052,66.495 55.792 C 66.378 54.531,66.229 53.500,66.163 53.500 C 66.097 53.500,65.989 52.806,65.923 51.958 C 65.857 51.110,65.744 50.342,65.673 50.250 C 65.601 50.158,65.492 49.521,65.431 48.833 C 65.369 48.146,65.276 47.340,65.224 47.042 L 65.130 46.500 58.315 46.500 L 51.500 46.500 51.500 47.240 M71.500 64.250 L 71.500 82.000 75.750 82.000 L 80.000 82.000 80.022 72.292 C 80.045 61.851,80.037 61.911,80.700 67.500 C 80.804 68.371,80.942 69.121,81.008 69.167 C 81.073 69.212,81.182 69.962,81.250 70.833 C 81.318 71.704,81.425 72.454,81.489 72.500 C 81.552 72.546,81.729 73.633,81.880 74.917 C 82.356 78.938,82.579 80.471,82.708 80.599 C 82.777 80.667,82.833 81.010,82.833 81.361 L 82.833 82.000 85.813 82.000 C 89.391 82.000,89.070 82.270,89.339 79.042 C 89.455 77.644,89.605 76.500,89.670 76.500 C 89.736 76.500,89.845 75.731,89.911 74.792 C 89.978 73.852,90.081 73.008,90.141 72.917 C 90.250 72.750,90.392 71.706,90.968 66.833 C 91.137 65.412,91.323 64.137,91.382 64.000 C 91.441 63.862,91.516 63.413,91.549 63.000 C 91.582 62.587,91.622 66.694,91.638 72.125 L 91.667 82.000 95.917 82.000 L 100.167 82.000 100.167 64.250 L 100.167 46.500 93.932 46.500 L 87.698 46.500 87.579 48.125 C 87.514 49.019,87.403 49.825,87.334 49.917 C 87.264 50.008,87.112 51.246,86.997 52.667 C 86.881 54.087,86.730 55.325,86.662 55.417 C 86.593 55.508,86.483 56.353,86.417 57.293 C 86.351 58.233,86.230 59.044,86.149 59.095 C 86.067 59.145,85.989 59.613,85.975 60.135 C 85.960 60.696,85.920 60.879,85.877 60.583 C 85.837 60.308,85.745 60.008,85.673 59.917 C 85.601 59.825,85.446 58.737,85.329 57.500 C 85.213 56.262,85.061 55.175,84.992 55.083 C 84.923 54.992,84.813 54.185,84.747 53.292 C 84.681 52.398,84.574 51.667,84.510 51.667 C 84.446 51.667,84.298 50.635,84.182 49.375 C 84.067 48.115,83.903 47.058,83.819 47.028 C 83.735 46.997,83.667 46.866,83.667 46.736 C 83.667 46.537,82.721 46.500,77.583 46.500 L 71.500 46.500 71.500 64.250 M105.755 48.208 C 105.689 49.148,105.585 49.992,105.526 50.083 C 105.405 50.267,105.154 52.200,104.723 56.250 C 104.566 57.717,104.387 58.954,104.324 59.000 C 104.261 59.046,104.155 59.833,104.088 60.750 C 104.021 61.667,103.908 62.492,103.836 62.583 C 103.765 62.675,103.609 63.894,103.489 65.292 C 103.370 66.690,103.218 67.833,103.152 67.833 C 103.086 67.833,102.978 68.622,102.913 69.586 C 102.847 70.550,102.735 71.374,102.665 71.418 C 102.594 71.462,102.482 72.267,102.416 73.207 C 102.350 74.147,102.239 74.992,102.169 75.083 C 102.099 75.175,101.945 76.360,101.827 77.716 C 101.708 79.072,101.549 80.220,101.472 80.267 C 101.396 80.314,101.333 80.724,101.333 81.177 L 101.333 82.000 106.250 82.000 L 111.167 82.000 111.167 80.760 C 111.167 80.078,111.242 79.473,111.333 79.417 C 111.425 79.360,111.500 78.765,111.500 78.094 C 111.500 77.424,111.547 76.641,111.604 76.354 L 111.708 75.833 113.104 75.833 L 114.500 75.833 114.500 76.573 C 114.500 76.981,114.575 77.360,114.667 77.417 C 114.758 77.473,114.834 78.021,114.835 78.635 C 114.835 79.248,114.884 80.256,114.942 80.875 L 115.048 82.000 119.880 82.000 L 124.712 82.000 124.593 80.376 C 124.528 79.483,124.412 78.677,124.337 78.585 C 124.262 78.492,124.146 77.759,124.080 76.956 C 124.014 76.152,123.901 75.459,123.829 75.414 C 123.757 75.369,123.644 74.620,123.579 73.750 C 123.514 72.879,123.406 72.167,123.340 72.167 C 123.274 72.167,123.125 71.173,123.010 69.958 C 122.895 68.744,122.741 67.675,122.669 67.583 C 122.596 67.492,122.483 66.723,122.417 65.875 C 122.352 65.027,122.244 64.333,122.178 64.333 C 122.112 64.333,121.959 63.281,121.839 61.995 C 121.718 60.709,121.562 59.622,121.492 59.578 C 121.422 59.535,121.311 58.787,121.246 57.916 C 121.180 57.046,121.073 56.333,121.007 56.333 C 120.941 56.333,120.791 55.340,120.673 54.125 C 120.555 52.910,120.401 51.842,120.331 51.750 C 120.261 51.658,120.150 50.889,120.084 50.041 C 120.018 49.192,119.897 48.456,119.816 48.406 C 119.734 48.355,119.666 48.074,119.664 47.782 C 119.663 47.489,119.617 47.081,119.562 46.875 L 119.461 46.500 112.669 46.500 L 105.876 46.500 105.755 48.208 M126.333 50.250 L 126.333 54.000 129.418 54.000 C 132.306 54.000,132.493 54.019,132.344 54.292 C 132.184 54.584,131.611 56.481,131.400 57.417 C 131.338 57.692,131.231 57.992,131.163 58.083 C 131.094 58.175,130.985 58.569,130.921 58.958 C 130.857 59.348,130.742 59.667,130.667 59.667 C 130.592 59.667,130.436 60.192,130.322 60.833 C 130.207 61.475,130.057 62.000,129.988 62.000 C 129.919 62.000,129.812 62.300,129.750 62.666 C 129.688 63.032,129.578 63.369,129.505 63.414 C 129.432 63.459,129.321 63.833,129.260 64.244 C 129.198 64.656,129.085 65.031,129.009 65.078 C 128.933 65.125,128.773 65.652,128.654 66.248 C 128.536 66.845,128.386 67.333,128.322 67.333 C 128.257 67.333,128.154 67.669,128.093 68.079 C 128.031 68.490,127.919 68.864,127.843 68.911 C 127.767 68.958,127.613 69.484,127.500 70.081 C 127.388 70.678,127.234 71.167,127.158 71.167 C 127.082 71.167,126.970 71.505,126.908 71.919 C 126.846 72.332,126.737 72.707,126.666 72.751 C 126.595 72.794,126.440 73.318,126.321 73.915 C 126.203 74.512,126.051 75.000,125.985 75.000 C 125.919 75.000,125.813 75.375,125.750 75.833 C 125.687 76.292,125.566 76.667,125.480 76.667 C 125.389 76.667,125.344 77.749,125.371 79.292 L 125.417 81.917 134.125 81.960 L 142.833 82.003 142.833 78.335 L 142.833 74.667 139.500 74.667 C 136.278 74.667,136.167 74.656,136.167 74.333 C 136.167 74.150,136.228 74.000,136.303 74.000 C 136.378 74.000,136.536 73.512,136.654 72.917 C 136.773 72.321,136.930 71.833,137.003 71.833 C 137.077 71.833,137.190 71.515,137.254 71.125 C 137.318 70.735,137.428 70.342,137.497 70.250 C 137.566 70.158,137.718 69.671,137.833 69.167 C 137.949 68.662,138.102 68.175,138.174 68.083 C 138.245 67.992,138.356 67.635,138.420 67.292 C 138.485 66.948,138.597 66.667,138.671 66.667 C 138.744 66.667,138.856 66.361,138.919 65.986 C 138.982 65.612,139.133 65.115,139.254 64.881 C 139.376 64.648,139.525 64.091,139.586 63.645 C 139.648 63.199,139.759 62.833,139.834 62.833 C 139.909 62.833,140.021 62.533,140.083 62.167 C 140.145 61.800,140.256 61.500,140.329 61.500 C 140.402 61.500,140.554 61.012,140.667 60.417 C 140.779 59.821,140.933 59.333,141.009 59.333 C 141.084 59.333,141.197 58.995,141.259 58.581 C 141.321 58.168,141.432 57.792,141.505 57.747 C 141.578 57.702,141.688 57.365,141.750 56.999 C 141.812 56.633,141.923 56.333,141.997 56.333 C 142.070 56.333,142.227 55.846,142.346 55.250 C 142.464 54.654,142.622 54.167,142.697 54.167 C 142.772 54.167,142.833 52.442,142.833 50.333 L 142.833 46.500 134.583 46.500 L 126.333 46.500 126.333 50.250 M144.667 64.250 L 144.667 82.000 149.500 82.000 L 154.333 82.000 154.333 64.250 L 154.333 46.500 149.500 46.500 L 144.667 46.500 144.667 64.250 M157.416 46.875 C 157.366 47.081,157.346 55.050,157.371 64.583 L 157.417 81.917 161.542 81.961 L 165.667 82.006 165.692 74.961 C 165.705 71.087,165.748 68.123,165.786 68.375 C 165.824 68.627,165.913 68.833,165.984 68.833 C 166.055 68.833,166.207 69.358,166.322 69.999 C 166.436 70.641,166.594 71.205,166.672 71.253 C 166.750 71.302,166.864 71.677,166.926 72.087 C 166.987 72.498,167.095 72.833,167.164 72.833 C 167.234 72.833,167.341 73.148,167.403 73.533 C 167.464 73.918,167.578 74.312,167.656 74.408 C 167.734 74.505,167.888 75.033,168.000 75.583 C 168.112 76.133,168.260 76.658,168.330 76.750 C 168.399 76.842,168.511 77.217,168.577 77.583 C 168.643 77.950,168.757 78.325,168.830 78.417 C 168.904 78.508,169.055 79.033,169.167 79.583 C 169.278 80.133,169.428 80.658,169.499 80.750 C 169.570 80.842,169.680 81.160,169.744 81.458 L 169.860 82.000 174.097 82.000 L 178.333 82.000 178.333 64.250 L 178.333 46.500 174.250 46.500 L 170.167 46.500 170.167 53.417 C 170.167 59.843,170.057 61.485,169.750 59.667 C 169.688 59.300,169.576 59.000,169.501 59.000 C 169.426 59.000,169.314 58.635,169.253 58.188 C 169.192 57.742,169.042 57.186,168.921 56.952 C 168.800 56.718,168.649 56.221,168.586 55.847 C 168.522 55.473,168.409 55.167,168.333 55.167 C 168.258 55.167,168.145 54.867,168.083 54.500 C 168.021 54.133,167.916 53.833,167.849 53.833 C 167.782 53.833,167.631 53.345,167.512 52.748 C 167.394 52.152,167.238 51.628,167.167 51.584 C 167.096 51.540,166.985 51.222,166.921 50.877 C 166.856 50.532,166.745 50.175,166.674 50.083 C 166.602 49.992,166.449 49.504,166.333 49.000 C 166.218 48.496,166.065 48.008,165.993 47.917 C 165.922 47.825,165.811 47.469,165.746 47.125 L 165.630 46.500 161.568 46.500 L 157.506 46.500 157.416 46.875 M230.913 68.500 C 230.913 76.246,230.933 79.415,230.958 75.542 C 230.983 71.669,230.983 65.331,230.958 61.458 C 230.933 57.585,230.913 60.754,230.913 68.500 M58.992 60.542 C 59.109 62.581,59.263 64.325,59.334 64.417 C 59.405 64.508,59.517 65.577,59.584 66.792 L 59.704 69.000 58.497 69.000 L 57.291 69.000 57.412 66.792 C 57.479 65.577,57.593 64.546,57.665 64.500 C 57.738 64.454,57.851 63.535,57.918 62.458 C 57.985 61.381,58.098 60.500,58.168 60.500 C 58.239 60.500,58.351 59.675,58.417 58.667 C 58.597 55.912,58.756 56.432,58.992 60.542 M113.314 60.292 C 113.325 60.956,113.394 61.500,113.469 61.500 C 113.544 61.500,113.703 63.056,113.822 64.958 C 113.941 66.860,114.107 68.548,114.192 68.708 C 114.332 68.975,114.229 69.000,113.006 69.000 L 111.667 69.000 111.667 68.028 C 111.667 67.493,111.723 67.000,111.792 66.932 C 111.860 66.864,112.009 65.895,112.121 64.779 C 112.463 61.398,112.950 57.088,113.002 57.000 C 113.087 56.855,113.294 59.036,113.314 60.292 M262.776 90.792 C 262.734 90.860,263.248 90.917,263.918 90.917 C 264.588 90.917,265.049 90.862,264.943 90.794 C 264.689 90.633,262.875 90.631,262.776 90.792 M266.442 90.792 C 266.400 90.860,266.950 90.917,267.666 90.917 C 268.382 90.917,268.933 90.860,268.890 90.792 C 268.848 90.723,268.298 90.667,267.667 90.667 C 267.036 90.667,266.485 90.723,266.442 90.792 " stroke="none" fill="#24a4f4" fill-rule="evenodd"></path></g></svg>